<svg xmlns="http://www.w3.org/2000/svg" viewBox="0 0 128 128" role="img" aria-label="Ticket Radar">
  <rect width="128" height="128" rx="26" fill="#0f766e"/>
  <path d="M28 44a10 10 0 0 1 10-10h52a10 10 0 0 1 10 10v10a10 10 0 0 0 0 20v10a10 10 0 0 1-10 10H38a10 10 0 0 1-10-10V74a10 10 0 0 0 0-20V44Z" fill="#f8fafc"/>
  <path d="M44 70a22 22 0 0 1 40 0" fill="none" stroke="#f59e0b" stroke-width="8" stroke-linecap="round"/>
  <circle cx="64" cy="70" r="7" fill="#e11d48"/>
  <path d="M64 70 78 54" stroke="#18202f" stroke-width="6" stroke-linecap="round"/>
</svg>
